<mxfile modified="2019-11-21T06:08:09.117Z" host="www.draw.io" agent="Mozilla/5.0 (Windows NT 10.0; Win64; x64) AppleWebKit/537.36 (KHTML, like Gecko) Chrome/78.0.3904.97 Safari/537.36" etag="CtqJATVTgaqsQ_Y1c2mf" version="12.2.7" type="github" pages="1">
  <diagram id="Ht1M8jgEwFfnCIfOTk4-" name="Page-1">
    <mxGraphModel dx="1209" dy="650" grid="1" gridSize="10" guides="1" tooltips="1" connect="1" arrows="1" fold="1" page="1" pageScale="1" pageWidth="1169" pageHeight="827" math="0" shadow="0">
      <root>
        <mxCell id="0"/>
        <mxCell id="1" parent="0"/>
        <mxCell id="UEzPUAAOIrF-is8g5C7q-131" style="edgeStyle=orthogonalEdgeStyle;rounded=0;orthogonalLoop=1;jettySize=auto;html=1;startArrow=open;startFill=0;endArrow=open;endFill=0;strokeWidth=2;strokeColor=#808080;" parent="1" edge="1" target="UEzPUAAOIrF-is8g5C7q-116">
          <mxGeometry relative="1" as="geometry">
            <Array as="points">
              <mxPoint x="721" y="362"/>
              <mxPoint x="721" y="80"/>
            </Array>
            <mxPoint x="658.5" y="362" as="sourcePoint"/>
            <mxPoint x="800.5000000000002" y="163" as="targetPoint"/>
          </mxGeometry>
        </mxCell>
        <mxCell id="UEzPUAAOIrF-is8g5C7q-132" style="edgeStyle=orthogonalEdgeStyle;rounded=0;orthogonalLoop=1;jettySize=auto;html=1;startArrow=open;startFill=0;endArrow=open;endFill=0;strokeWidth=2;strokeColor=#808080;" parent="1" edge="1">
          <mxGeometry relative="1" as="geometry">
            <Array as="points">
              <mxPoint x="760" y="372"/>
              <mxPoint x="760" y="280"/>
            </Array>
            <mxPoint x="658.5" y="372" as="sourcePoint"/>
            <mxPoint x="800.5000000000002" y="280" as="targetPoint"/>
          </mxGeometry>
        </mxCell>
        <mxCell id="UEzPUAAOIrF-is8g5C7q-133" style="edgeStyle=orthogonalEdgeStyle;rounded=0;orthogonalLoop=1;jettySize=auto;html=1;startArrow=open;startFill=0;endArrow=open;endFill=0;strokeWidth=2;strokeColor=#808080;" parent="1" edge="1">
          <mxGeometry relative="1" as="geometry">
            <Array as="points">
              <mxPoint x="760.5" y="381.5"/>
              <mxPoint x="760.5" y="415.5"/>
            </Array>
            <mxPoint x="658.5" y="382" as="sourcePoint"/>
            <mxPoint x="800.5000000000002" y="416" as="targetPoint"/>
          </mxGeometry>
        </mxCell>
        <mxCell id="UEzPUAAOIrF-is8g5C7q-134" style="edgeStyle=orthogonalEdgeStyle;rounded=0;orthogonalLoop=1;jettySize=auto;html=1;startArrow=open;startFill=0;endArrow=open;endFill=0;strokeWidth=2;strokeColor=#808080;" parent="1" target="UEzPUAAOIrF-is8g5C7q-121" edge="1">
          <mxGeometry relative="1" as="geometry">
            <Array as="points">
              <mxPoint x="740.5" y="391.5"/>
              <mxPoint x="740.5" y="530.5"/>
            </Array>
            <mxPoint x="658.5" y="392" as="sourcePoint"/>
          </mxGeometry>
        </mxCell>
        <mxCell id="UEzPUAAOIrF-is8g5C7q-135" style="edgeStyle=orthogonalEdgeStyle;rounded=0;orthogonalLoop=1;jettySize=auto;html=1;startArrow=open;startFill=0;endArrow=open;endFill=0;strokeWidth=2;strokeColor=#808080;" parent="1" edge="1">
          <mxGeometry relative="1" as="geometry">
            <Array as="points">
              <mxPoint x="720.5" y="401.5"/>
              <mxPoint x="720.5" y="653.5"/>
            </Array>
            <mxPoint x="658.5" y="402" as="sourcePoint"/>
            <mxPoint x="800.882505059591" y="654" as="targetPoint"/>
          </mxGeometry>
        </mxCell>
        <mxCell id="UEzPUAAOIrF-is8g5C7q-136" style="edgeStyle=orthogonalEdgeStyle;rounded=0;orthogonalLoop=1;jettySize=auto;html=1;startArrow=open;startFill=0;endArrow=open;endFill=0;strokeWidth=2;strokeColor=#808080;" parent="1" target="02hSYp207ZbuOktpREeJ-11" edge="1">
          <mxGeometry relative="1" as="geometry">
            <Array as="points">
              <mxPoint x="700" y="412"/>
              <mxPoint x="700" y="759"/>
            </Array>
            <mxPoint x="658.5" y="412" as="sourcePoint"/>
            <mxPoint x="800.5000000000002" y="730" as="targetPoint"/>
          </mxGeometry>
        </mxCell>
        <mxCell id="UEzPUAAOIrF-is8g5C7q-116" value="Amazon S3" style="outlineConnect=0;fontColor=#232F3E;gradientColor=#60A337;gradientDirection=north;fillColor=#277116;strokeColor=#ffffff;dashed=0;verticalLabelPosition=bottom;verticalAlign=top;align=center;html=1;fontSize=12;fontStyle=0;aspect=fixed;shape=mxgraph.aws4.resourceIcon;resIcon=mxgraph.aws4.s3;labelBackgroundColor=#ffffff;" parent="1" vertex="1">
          <mxGeometry x="800.5000000000002" y="42" width="78" height="78" as="geometry"/>
        </mxCell>
        <mxCell id="UEzPUAAOIrF-is8g5C7q-121" value="Amazon&lt;br&gt;CloudWatch&lt;br&gt;" style="outlineConnect=0;fontColor=#232F3E;gradientColor=#F34482;gradientDirection=north;fillColor=#BC1356;strokeColor=#ffffff;dashed=0;verticalLabelPosition=bottom;verticalAlign=top;align=center;html=1;fontSize=12;fontStyle=0;aspect=fixed;shape=mxgraph.aws4.resourceIcon;resIcon=mxgraph.aws4.cloudwatch;labelBackgroundColor=#ffffff;" parent="1" vertex="1">
          <mxGeometry x="800.5000000000002" y="491.5" width="78" height="78" as="geometry"/>
        </mxCell>
        <mxCell id="02hSYp207ZbuOktpREeJ-1" value="EC2" style="outlineConnect=0;fontColor=#232F3E;gradientColor=#F78E04;gradientDirection=north;fillColor=#D05C17;strokeColor=#ffffff;dashed=0;verticalLabelPosition=bottom;verticalAlign=top;align=center;html=1;fontSize=12;fontStyle=0;aspect=fixed;shape=mxgraph.aws4.resourceIcon;resIcon=mxgraph.aws4.ec2;" parent="1" vertex="1">
          <mxGeometry x="584" y="340" width="78" height="78" as="geometry"/>
        </mxCell>
        <mxCell id="02hSYp207ZbuOktpREeJ-2" value="RDS" style="outlineConnect=0;fontColor=#232F3E;gradientColor=#4D72F3;gradientDirection=north;fillColor=#3334B9;strokeColor=#ffffff;dashed=0;verticalLabelPosition=bottom;verticalAlign=top;align=center;html=1;fontSize=12;fontStyle=0;aspect=fixed;shape=mxgraph.aws4.resourceIcon;resIcon=mxgraph.aws4.rds;" parent="1" vertex="1">
          <mxGeometry x="800.5" y="240" width="78" height="78" as="geometry"/>
        </mxCell>
        <mxCell id="02hSYp207ZbuOktpREeJ-3" value="" style="outlineConnect=0;fontColor=#232F3E;gradientColor=#4D72F3;gradientDirection=north;fillColor=#3334B9;strokeColor=#ffffff;dashed=0;verticalLabelPosition=bottom;verticalAlign=top;align=center;html=1;fontSize=12;fontStyle=0;aspect=fixed;shape=mxgraph.aws4.resourceIcon;resIcon=mxgraph.aws4.database;" parent="1" vertex="1">
          <mxGeometry x="1170" y="380" width="78" height="78" as="geometry"/>
        </mxCell>
        <mxCell id="02hSYp207ZbuOktpREeJ-4" value="" style="outlineConnect=0;fontColor=#232F3E;gradientColor=#4D72F3;gradientDirection=north;fillColor=#3334B9;strokeColor=#ffffff;dashed=0;verticalLabelPosition=bottom;verticalAlign=top;align=center;html=1;fontSize=12;fontStyle=0;aspect=fixed;shape=mxgraph.aws4.resourceIcon;resIcon=mxgraph.aws4.database;" parent="1" vertex="1">
          <mxGeometry x="1080" y="240" width="78" height="78" as="geometry"/>
        </mxCell>
        <mxCell id="02hSYp207ZbuOktpREeJ-5" value="" style="outlineConnect=0;fontColor=#232F3E;gradientColor=#4D72F3;gradientDirection=north;fillColor=#3334B9;strokeColor=#ffffff;dashed=0;verticalLabelPosition=bottom;verticalAlign=top;align=center;html=1;fontSize=12;fontStyle=0;aspect=fixed;shape=mxgraph.aws4.resourceIcon;resIcon=mxgraph.aws4.database;" parent="1" vertex="1">
          <mxGeometry x="1180" y="240" width="78" height="78" as="geometry"/>
        </mxCell>
        <mxCell id="02hSYp207ZbuOktpREeJ-8" value="Auto Scailing" style="outlineConnect=0;fontColor=#232F3E;gradientColor=#F78E04;gradientDirection=north;fillColor=#D05C17;strokeColor=#ffffff;dashed=0;verticalLabelPosition=bottom;verticalAlign=top;align=center;html=1;fontSize=12;fontStyle=0;aspect=fixed;shape=mxgraph.aws4.resourceIcon;resIcon=mxgraph.aws4.auto_scaling2;" parent="1" vertex="1">
          <mxGeometry x="800.5" y="374" width="78" height="78" as="geometry"/>
        </mxCell>
        <mxCell id="02hSYp207ZbuOktpREeJ-9" value="" style="outlineConnect=0;fontColor=#232F3E;gradientColor=none;fillColor=#D86613;strokeColor=none;dashed=0;verticalLabelPosition=bottom;verticalAlign=top;align=center;html=1;fontSize=12;fontStyle=0;aspect=fixed;pointerEvents=1;shape=mxgraph.aws4.t2_instance;" parent="1" vertex="1">
          <mxGeometry x="575" y="80" width="48" height="48" as="geometry"/>
        </mxCell>
        <mxCell id="02hSYp207ZbuOktpREeJ-10" value="" style="outlineConnect=0;fontColor=#232F3E;gradientColor=none;fillColor=#3334B9;strokeColor=none;dashed=0;verticalLabelPosition=bottom;verticalAlign=top;align=center;html=1;fontSize=12;fontStyle=0;aspect=fixed;pointerEvents=1;shape=mxgraph.aws4.rds_oracle_instance;" parent="1" vertex="1">
          <mxGeometry x="1000" y="379" width="78" height="78" as="geometry"/>
        </mxCell>
        <mxCell id="02hSYp207ZbuOktpREeJ-11" value="Cloud 9" style="outlineConnect=0;fontColor=#232F3E;gradientColor=#4D72F3;gradientDirection=north;fillColor=#3334B9;strokeColor=#ffffff;dashed=0;verticalLabelPosition=bottom;verticalAlign=top;align=center;html=1;fontSize=12;fontStyle=0;aspect=fixed;shape=mxgraph.aws4.resourceIcon;resIcon=mxgraph.aws4.cloud9;" parent="1" vertex="1">
          <mxGeometry x="800.5" y="720" width="78" height="78" as="geometry"/>
        </mxCell>
        <mxCell id="02hSYp207ZbuOktpREeJ-12" value="" style="outlineConnect=0;fontColor=#232F3E;gradientColor=none;fillColor=#277116;strokeColor=none;dashed=0;verticalLabelPosition=bottom;verticalAlign=top;align=center;html=1;fontSize=12;fontStyle=0;aspect=fixed;pointerEvents=1;shape=mxgraph.aws4.http_protocol;" parent="1" vertex="1">
          <mxGeometry x="187" y="131.5" width="78" height="78" as="geometry"/>
        </mxCell>
        <mxCell id="02hSYp207ZbuOktpREeJ-17" value="Android" style="outlineConnect=0;fontColor=#232F3E;gradientColor=#F54749;gradientDirection=north;fillColor=#C7131F;strokeColor=#ffffff;dashed=0;verticalLabelPosition=bottom;verticalAlign=top;align=center;html=1;fontSize=12;fontStyle=0;aspect=fixed;shape=mxgraph.aws4.resourceIcon;resIcon=mxgraph.aws4.mobile;" parent="1" vertex="1">
          <mxGeometry x="43" y="342" width="78" height="78" as="geometry"/>
        </mxCell>
        <mxCell id="02hSYp207ZbuOktpREeJ-18" value="IAM" style="outlineConnect=0;fontColor=#232F3E;gradientColor=#F54749;gradientDirection=north;fillColor=#C7131F;strokeColor=#ffffff;dashed=0;verticalLabelPosition=bottom;verticalAlign=top;align=center;html=1;fontSize=12;fontStyle=0;aspect=fixed;shape=mxgraph.aws4.resourceIcon;resIcon=mxgraph.aws4.identity_and_access_management;" parent="1" vertex="1">
          <mxGeometry x="800.5" y="610" width="78" height="78" as="geometry"/>
        </mxCell>
        <mxCell id="02hSYp207ZbuOktpREeJ-19" value="users" style="outlineConnect=0;gradientColor=none;fontColor=#545B64;strokeColor=none;fillColor=#879196;dashed=0;verticalLabelPosition=bottom;verticalAlign=top;align=center;html=1;fontSize=12;fontStyle=0;aspect=fixed;shape=mxgraph.aws4.illustration_users;pointerEvents=1" parent="1" vertex="1">
          <mxGeometry x="523" y="150" width="100" height="100" as="geometry"/>
        </mxCell>
        <mxCell id="02hSYp207ZbuOktpREeJ-21" value="devices" style="outlineConnect=0;gradientColor=none;fontColor=#545B64;strokeColor=none;fillColor=#879196;dashed=0;verticalLabelPosition=bottom;verticalAlign=top;align=center;html=1;fontSize=12;fontStyle=0;aspect=fixed;shape=mxgraph.aws4.illustration_devices;pointerEvents=1" parent="1" vertex="1">
          <mxGeometry x="268" y="590" width="100" height="73" as="geometry"/>
        </mxCell>
        <mxCell id="02hSYp207ZbuOktpREeJ-22" value="" style="outlineConnect=0;fontColor=#232F3E;gradientColor=none;fillColor=#232F3E;strokeColor=none;dashed=0;verticalLabelPosition=bottom;verticalAlign=top;align=center;html=1;fontSize=12;fontStyle=0;aspect=fixed;pointerEvents=1;shape=mxgraph.aws4.mobile_client;" parent="1" vertex="1">
          <mxGeometry x="80" y="585" width="41" height="78" as="geometry"/>
        </mxCell>
        <mxCell id="02hSYp207ZbuOktpREeJ-23" value="" style="outlineConnect=0;fontColor=#232F3E;gradientColor=none;fillColor=#232F3E;strokeColor=none;dashed=0;verticalLabelPosition=bottom;verticalAlign=top;align=center;html=1;fontSize=12;fontStyle=0;aspect=fixed;pointerEvents=1;shape=mxgraph.aws4.user;" parent="1" vertex="1">
          <mxGeometry x="1010" y="590" width="78" height="78" as="geometry"/>
        </mxCell>
        <mxCell id="02hSYp207ZbuOktpREeJ-25" value="Django&lt;br&gt;Framework" style="outlineConnect=0;fontColor=#232F3E;gradientColor=#945DF2;gradientDirection=north;fillColor=#5A30B5;strokeColor=#ffffff;dashed=0;verticalLabelPosition=bottom;verticalAlign=top;align=center;html=1;fontSize=12;fontStyle=0;aspect=fixed;shape=mxgraph.aws4.resourceIcon;resIcon=mxgraph.aws4.api_gateway;" parent="1" vertex="1">
          <mxGeometry x="437" y="342" width="78" height="78" as="geometry"/>
        </mxCell>
        <mxCell id="02hSYp207ZbuOktpREeJ-27" value="" style="outlineConnect=0;fontColor=#232F3E;gradientColor=none;fillColor=#3334B9;strokeColor=none;dashed=0;verticalLabelPosition=bottom;verticalAlign=top;align=center;html=1;fontSize=12;fontStyle=0;aspect=fixed;pointerEvents=1;shape=mxgraph.aws4.t3_instance;" parent="1" vertex="1">
          <mxGeometry x="1080" y="80" width="48" height="48" as="geometry"/>
        </mxCell>
        <mxCell id="4u2JqEsfzCHy2befoRDk-4" value="" style="outlineConnect=0;fontColor=#232F3E;gradientColor=none;fillColor=#3334B9;strokeColor=none;dashed=0;verticalLabelPosition=bottom;verticalAlign=top;align=center;html=1;fontSize=12;fontStyle=0;aspect=fixed;pointerEvents=1;shape=mxgraph.aws4.t3_instance;" vertex="1" parent="1">
          <mxGeometry x="1080" y="208" width="48" height="48" as="geometry"/>
        </mxCell>
        <mxCell id="02hSYp207ZbuOktpREeJ-28" value="" style="dashed=0;outlineConnect=0;html=1;align=center;labelPosition=center;verticalLabelPosition=bottom;verticalAlign=top;shape=mxgraph.weblogos.json;fillColor=#3334B9;strokeColor=#3334B9;" parent="1" vertex="1">
          <mxGeometry x="380.5" y="156" width="70" height="75.8" as="geometry"/>
        </mxCell>
        <mxCell id="02hSYp207ZbuOktpREeJ-29" value="" style="dashed=0;outlineConnect=0;html=1;align=center;labelPosition=center;verticalLabelPosition=bottom;verticalAlign=top;shape=mxgraph.weblogos.json;strokeColor=#3334B9;fillColor=#3334B9;" parent="1" vertex="1">
          <mxGeometry x="60" y="42" width="70" height="75.8" as="geometry"/>
        </mxCell>
        <mxCell id="02hSYp207ZbuOktpREeJ-31" value="" style="shape=image;html=1;verticalAlign=top;verticalLabelPosition=bottom;labelBackgroundColor=#ffffff;imageAspect=0;aspect=fixed;image=https://cdn3.iconfinder.com/data/icons/file-set-volume-1/512/Artboard_9-128.png;strokeColor=#3334B9;fillColor=#3334B9;imageBackground=none;imageBorder=none;" parent="1" vertex="1">
          <mxGeometry x="140" y="14.5" width="128" height="128" as="geometry"/>
        </mxCell>
        <mxCell id="02hSYp207ZbuOktpREeJ-32" value="" style="dashed=0;outlineConnect=0;html=1;align=center;labelPosition=center;verticalLabelPosition=bottom;verticalAlign=top;shape=mxgraph.weblogos.json_2;strokeColor=#3334B9;fillColor=#3334B9;" parent="1" vertex="1">
          <mxGeometry x="165" y="388" width="80.4" height="25.200000000000003" as="geometry"/>
        </mxCell>
        <mxCell id="4u2JqEsfzCHy2befoRDk-3" value="RESTful&lt;br&gt;API" style="outlineConnect=0;fontColor=#232F3E;gradientColor=#945DF2;gradientDirection=south;fillColor=#5A30B5;strokeColor=#ffffff;dashed=0;verticalLabelPosition=bottom;verticalAlign=top;align=center;html=1;fontSize=12;fontStyle=0;aspect=fixed;shape=mxgraph.aws4.resourceIcon;resIcon=mxgraph.aws4.elastic_load_balancing;direction=west;" vertex="1" parent="1">
          <mxGeometry x="289" y="341" width="79" height="79" as="geometry"/>
        </mxCell>
        <mxCell id="4u2JqEsfzCHy2befoRDk-6" value="" style="outlineConnect=0;fontColor=#232F3E;gradientColor=none;fillColor=#3334B9;strokeColor=none;dashed=0;verticalLabelPosition=bottom;verticalAlign=top;align=center;html=1;fontSize=12;fontStyle=0;aspect=fixed;pointerEvents=1;shape=mxgraph.aws4.t3_instance;" vertex="1" parent="1">
          <mxGeometry x="1185" y="142.5" width="48" height="48" as="geometry"/>
        </mxCell>
        <mxCell id="4u2JqEsfzCHy2befoRDk-7" style="edgeStyle=orthogonalEdgeStyle;rounded=0;orthogonalLoop=1;jettySize=auto;html=1;startArrow=open;startFill=0;endArrow=open;endFill=0;strokeWidth=2;strokeColor=#808080;" edge="1" parent="1">
          <mxGeometry relative="1" as="geometry">
            <Array as="points">
              <mxPoint x="226" y="260"/>
            </Array>
            <mxPoint x="50" y="260" as="sourcePoint"/>
            <mxPoint x="367.5000000000002" y="260" as="targetPoint"/>
          </mxGeometry>
        </mxCell>
        <mxCell id="4u2JqEsfzCHy2befoRDk-8" style="edgeStyle=orthogonalEdgeStyle;rounded=0;orthogonalLoop=1;jettySize=auto;html=1;startArrow=open;startFill=0;endArrow=open;endFill=0;strokeWidth=2;strokeColor=#808080;" edge="1" parent="1" source="02hSYp207ZbuOktpREeJ-17" target="4u2JqEsfzCHy2befoRDk-3">
          <mxGeometry relative="1" as="geometry">
            <Array as="points">
              <mxPoint x="216" y="381"/>
            </Array>
            <mxPoint x="180" y="300" as="sourcePoint"/>
            <mxPoint x="240" y="300" as="targetPoint"/>
          </mxGeometry>
        </mxCell>
        <mxCell id="4u2JqEsfzCHy2befoRDk-11" style="edgeStyle=orthogonalEdgeStyle;rounded=0;orthogonalLoop=1;jettySize=auto;html=1;startArrow=open;startFill=0;endArrow=open;endFill=0;strokeWidth=2;strokeColor=#808080;" edge="1" parent="1" source="4u2JqEsfzCHy2befoRDk-3" target="02hSYp207ZbuOktpREeJ-25">
          <mxGeometry relative="1" as="geometry">
            <Array as="points"/>
            <mxPoint x="230" y="389" as="sourcePoint"/>
            <mxPoint x="299" y="389" as="targetPoint"/>
          </mxGeometry>
        </mxCell>
        <mxCell id="4u2JqEsfzCHy2befoRDk-15" style="rounded=0;orthogonalLoop=1;jettySize=auto;html=1;startArrow=open;startFill=0;endArrow=open;endFill=0;strokeWidth=2;strokeColor=#808080;" edge="1" parent="1" source="02hSYp207ZbuOktpREeJ-25" target="02hSYp207ZbuOktpREeJ-1">
          <mxGeometry relative="1" as="geometry">
            <mxPoint x="378" y="390.5" as="sourcePoint"/>
            <mxPoint x="447" y="390.5" as="targetPoint"/>
          </mxGeometry>
        </mxCell>
      </root>
    </mxGraphModel>
  </diagram>
</mxfile>
